<svg width="100" height="100" viewBox="0 0 100 100" fill="none" xmlns="http://www.w3.org/2000/svg">
<rect x="7" y="23" width="86" height="54" rx="7" stroke="#75715E" stroke-width="6"/>
<path fill-rule="evenodd" clip-rule="evenodd" d="M51.7922 35.2727C51.7922 34.1681 52.6877 33.2727 53.7922 33.2727H84.7173C85.8219 33.2727 86.7173 34.1681 86.7173 35.2727C86.7173 36.3773 85.8219 37.2727 84.7173 37.2727H53.7922C52.6877 37.2727 51.7922 36.3773 51.7922 35.2727ZM51.7922 49.8181C51.7922 48.7135 52.6877 47.8181 53.7922 47.8181H84.7173C85.8219 47.8181 86.7173 48.7135 86.7173 49.8181C86.7173 50.9227 85.8219 51.8181 84.7173 51.8181H53.7922C52.6877 51.8181 51.7922 50.9227 51.7922 49.8181ZM53.7922 62.3635C52.6877 62.3635 51.7922 63.259 51.7922 64.3635C51.7922 65.4681 52.6877 66.3635 53.7922 66.3635H84.7173C85.8219 66.3635 86.7173 65.4681 86.7173 64.3635C86.7173 63.259 85.8219 62.3635 84.7173 62.3635H53.7922Z" fill="#75715E"/>
<path fill-rule="evenodd" clip-rule="evenodd" d="M34.7 41.1111C34.7 45.0385 31.4764 48.2222 27.5 48.2222C23.5235 48.2222 20.3 45.0385 20.3 41.1111C20.3 37.1838 23.5235 34 27.5 34C31.4764 34 34.7 37.1838 34.7 41.1111ZM31.1 41.1111C31.1 43.0748 29.4882 44.6667 27.5 44.6667C25.5118 44.6667 23.9 43.0748 23.9 41.1111C23.9 39.1474 25.5118 37.5556 27.5 37.5556C29.4882 37.5556 31.1 39.1474 31.1 41.1111Z" fill="#75715E"/>
<path d="M17.6 60.6667C17.6 57.2302 20.4206 54.4444 23.9 54.4444H31.1C34.5794 54.4444 37.4 57.2302 37.4 60.6667V64.2222C37.4 65.2041 38.2059 66 39.2 66C40.1941 66 41 65.2041 41 64.2222V60.6667C41 55.2666 36.5676 50.8889 31.1 50.8889H23.9C18.4324 50.8889 14 55.2665 14 60.6667V64.2222C14 65.2041 14.8059 66 15.8 66C16.7941 66 17.6 65.2041 17.6 64.2222V60.6667Z" fill="#75715E"/>
</svg>
