<svg width="100" height="100" viewBox="0 0 100 100" fill="none" xmlns="http://www.w3.org/2000/svg">
<path fill-rule="evenodd" clip-rule="evenodd" d="M44 28.8416L11.6734 44.1502C1.78216 48.8343 1.75204 62.8981 11.6231 67.6245L44.4286 83.3324C47.954 85.0204 52.0518 85.0326 55.5872 83.3656L88.4286 67.8803C98.3412 63.2063 98.3776 49.1173 88.4893 44.3922L56 28.8673V35.5171L85.9024 49.8059C91.2269 52.3502 91.2073 59.9366 85.8697 62.4533L53.0283 77.9386C51.1246 78.8362 48.9181 78.8297 47.0198 77.9207L14.2143 62.2129C8.89911 59.6679 8.91534 52.0951 14.2414 49.5728L44 35.4803V28.8416Z" fill="#75715E"/>
<path fill-rule="evenodd" clip-rule="evenodd" d="M32 54C33.6569 54 35 52.6569 35 51C35 49.3431 33.6569 48 32 48C30.3431 48 29 49.3431 29 51C29 52.6569 30.3431 54 32 54ZM32 64C33.6569 64 35 62.6569 35 61C35 59.3431 33.6569 58 32 58C30.3431 58 29 59.3431 29 61C29 62.6569 30.3431 64 32 64ZM30 56C30 57.6569 28.6569 59 27 59C25.3431 59 24 57.6569 24 56C24 54.3431 25.3431 53 27 53C28.6569 53 30 54.3431 30 56ZM37 59C38.6569 59 40 57.6569 40 56C40 54.3431 38.6569 53 37 53C35.3431 53 34 54.3431 34 56C34 57.6569 35.3431 59 37 59Z" fill="#75715E"/>
<path fill-rule="evenodd" clip-rule="evenodd" d="M65 61C65 62.6569 66.3431 64 68 64C69.6569 64 71 62.6569 71 61V59H73C74.6569 59 76 57.6569 76 56C76 54.3431 74.6569 53 73 53H71V51C71 49.3431 69.6569 48 68 48C66.3431 48 65 49.3431 65 51V53H63C61.3431 53 60 54.3431 60 56C60 57.6569 61.3431 59 63 59H65V61Z" fill="#75715E"/>
<path fill-rule="evenodd" clip-rule="evenodd" d="M53 25.4879C56.4956 24.2524 59 20.9187 59 17C59 12.0294 54.9706 8 50 8C45.0294 8 41 12.0294 41 17C41 20.9187 43.5044 24.2524 47 25.4879L47 54C47 55.6569 48.3431 57 50 57C51.6569 57 53 55.6569 53 54L53 25.4879Z" fill="#75715E"/>
</svg>
