<svg width="100" height="100" viewBox="0 0 100 100" fill="none" xmlns="http://www.w3.org/2000/svg">
    <path
        d="M21.4589 28.416C21.4589 28.704 21.3869 28.968 21.2429 29.208C21.0989 29.448 20.9069 29.64 20.6669 29.784C20.4269 29.928 20.1629 30 19.8749 30H17.5709C17.3149 30 17.0709 29.94 16.8389 29.82L16.8269 29.808C16.5629 29.672 16.3549 29.48 16.2029 29.232C16.0509 28.976 15.9749 28.704 15.9749 28.416V23.484C15.9749 23.188 16.0469 22.92 16.1909 22.68C16.3349 22.44 16.5269 22.248 16.7669 22.104C17.0149 21.96 17.2829 21.888 17.5709 21.888H19.8749C19.9469 21.888 20.0429 21.9 20.1629 21.924C20.2909 21.94 20.4229 21.984 20.5589 22.056H20.5709C20.8429 22.192 21.0589 22.388 21.2189 22.644C21.3789 22.892 21.4589 23.172 21.4589 23.484V28.416ZM19.2269 23.46C19.2429 23.42 19.2429 23.388 19.2269 23.364C19.2109 23.332 19.1829 23.316 19.1429 23.316H17.5709C17.5309 23.316 17.4909 23.332 17.4509 23.364C17.4189 23.396 17.4029 23.436 17.4029 23.484V26.604C17.4029 26.636 17.4189 26.656 17.4509 26.664C17.4829 26.672 17.5069 26.66 17.5229 26.628L19.2269 23.46ZM20.0309 28.416V25.212C20.0309 25.172 20.0149 25.148 19.9829 25.14C19.9589 25.132 19.9349 25.144 19.9109 25.176L18.1709 28.44C18.1629 28.472 18.1669 28.504 18.1829 28.536C18.1989 28.568 18.2229 28.584 18.2549 28.584H19.8749C19.9149 28.584 19.9509 28.568 19.9829 28.536C20.0149 28.496 20.0309 28.456 20.0309 28.416ZM27.6996 27.06C27.6996 27.212 27.6476 27.344 27.5436 27.456C27.4396 27.56 27.3116 27.612 27.1596 27.612H24.4236C24.2716 27.612 24.1436 27.56 24.0396 27.456C23.9356 27.344 23.8836 27.212 23.8836 27.06V26.724C23.8836 26.572 23.9356 26.448 24.0396 26.352C24.1436 26.248 24.2716 26.196 24.4236 26.196H27.1596C27.3116 26.196 27.4396 26.248 27.5436 26.352C27.6476 26.448 27.6996 26.572 27.6996 26.724V27.06ZM35.6123 28.416C35.6123 28.704 35.5403 28.968 35.3963 29.208C35.2523 29.448 35.0603 29.64 34.8203 29.784C34.5803 29.928 34.3163 30 34.0283 30H31.7243C31.4683 30 31.2243 29.94 30.9923 29.82L30.9803 29.808C30.7163 29.672 30.5083 29.48 30.3563 29.232C30.2043 28.976 30.1283 28.704 30.1283 28.416V23.484C30.1283 23.188 30.2003 22.92 30.3443 22.68C30.4883 22.44 30.6803 22.248 30.9203 22.104C31.1683 21.96 31.4363 21.888 31.7243 21.888H34.0283C34.1003 21.888 34.1963 21.9 34.3163 21.924C34.4443 21.94 34.5763 21.984 34.7123 22.056H34.7243C34.9963 22.192 35.2123 22.388 35.3723 22.644C35.5323 22.892 35.6123 23.172 35.6123 23.484V28.416ZM33.3803 23.46C33.3963 23.42 33.3963 23.388 33.3803 23.364C33.3643 23.332 33.3363 23.316 33.2963 23.316H31.7243C31.6843 23.316 31.6443 23.332 31.6043 23.364C31.5723 23.396 31.5563 23.436 31.5563 23.484V26.604C31.5563 26.636 31.5723 26.656 31.6043 26.664C31.6363 26.672 31.6603 26.66 31.6763 26.628L33.3803 23.46ZM34.1843 28.416V25.212C34.1843 25.172 34.1683 25.148 34.1363 25.14C34.1123 25.132 34.0883 25.144 34.0643 25.176L32.3243 28.44C32.3163 28.472 32.3203 28.504 32.3363 28.536C32.3523 28.568 32.3763 28.584 32.4083 28.584H34.0283C34.0683 28.584 34.1043 28.568 34.1363 28.536C34.1683 28.496 34.1843 28.456 34.1843 28.416ZM43.5211 28.416C43.5211 28.704 43.4491 28.968 43.3051 29.208C43.1611 29.448 42.9691 29.64 42.7291 29.784C42.4891 29.928 42.2251 30 41.9371 30H39.6331C39.3771 30 39.1331 29.94 38.9011 29.82L38.8891 29.808C38.6251 29.672 38.4171 29.48 38.2651 29.232C38.1131 28.976 38.0371 28.704 38.0371 28.416V23.484C38.0371 23.188 38.1091 22.92 38.2531 22.68C38.3971 22.44 38.5891 22.248 38.8291 22.104C39.0771 21.96 39.3451 21.888 39.6331 21.888H41.9371C42.0091 21.888 42.1051 21.9 42.2251 21.924C42.3531 21.94 42.4851 21.984 42.6211 22.056H42.6331C42.9051 22.192 43.1211 22.388 43.2811 22.644C43.4411 22.892 43.5211 23.172 43.5211 23.484V28.416ZM41.2891 23.46C41.3051 23.42 41.3051 23.388 41.2891 23.364C41.2731 23.332 41.2451 23.316 41.2051 23.316H39.6331C39.5931 23.316 39.5531 23.332 39.5131 23.364C39.4811 23.396 39.4651 23.436 39.4651 23.484V26.604C39.4651 26.636 39.4811 26.656 39.5131 26.664C39.5451 26.672 39.5691 26.66 39.5851 26.628L41.2891 23.46ZM42.0931 28.416V25.212C42.0931 25.172 42.0771 25.148 42.0451 25.14C42.0211 25.132 41.9971 25.144 41.9731 25.176L40.2331 28.44C40.2251 28.472 40.2291 28.504 40.2451 28.536C40.2611 28.568 40.2851 28.584 40.3171 28.584H41.9371C41.9771 28.584 42.0131 28.568 42.0451 28.536C42.0771 28.496 42.0931 28.456 42.0931 28.416ZM49.1581 29.448C49.1581 29.6 49.1061 29.732 49.0021 29.844C48.9061 29.948 48.7821 30 48.6301 30H48.2941C48.1421 30 48.0101 29.948 47.8981 29.844C47.7941 29.732 47.7421 29.6 47.7421 29.448V23.988C47.7421 23.956 47.7261 23.936 47.6941 23.928C47.6701 23.912 47.6501 23.912 47.6341 23.928L47.4541 24.108C47.3581 24.22 47.2301 24.276 47.0701 24.276C46.9901 24.276 46.9181 24.26 46.8541 24.228C46.7501 24.188 46.6701 24.12 46.6141 24.024C46.5581 23.928 46.5301 23.828 46.5301 23.724V23.256C46.5301 23.104 46.5821 22.972 46.6861 22.86L47.5021 22.056C47.5581 22.008 47.6181 21.968 47.6821 21.936C47.7461 21.904 47.8181 21.888 47.8981 21.888H48.6301C48.7821 21.888 48.9061 21.94 49.0021 22.044C49.1061 22.148 49.1581 22.28 49.1581 22.44V29.448ZM57.0668 29.448C57.0668 29.6 57.0148 29.732 56.9108 29.844C56.8148 29.948 56.6908 30 56.5388 30H56.2028C56.0508 30 55.9188 29.948 55.8068 29.844C55.7028 29.732 55.6508 29.6 55.6508 29.448V23.988C55.6508 23.956 55.6348 23.936 55.6028 23.928C55.5788 23.912 55.5588 23.912 55.5428 23.928L55.3628 24.108C55.2668 24.22 55.1388 24.276 54.9788 24.276C54.8988 24.276 54.8268 24.26 54.7628 24.228C54.6588 24.188 54.5788 24.12 54.5228 24.024C54.4668 23.928 54.4388 23.828 54.4388 23.724V23.256C54.4388 23.104 54.4908 22.972 54.5948 22.86L55.4108 22.056C55.4668 22.008 55.5268 21.968 55.5908 21.936C55.6548 21.904 55.7268 21.888 55.8068 21.888H56.5388C56.6908 21.888 56.8148 21.94 56.9108 22.044C57.0148 22.148 57.0668 22.28 57.0668 22.44V29.448ZM64.7356 27.06C64.7356 27.212 64.6836 27.344 64.5796 27.456C64.4756 27.56 64.3476 27.612 64.1956 27.612H61.4596C61.3076 27.612 61.1796 27.56 61.0756 27.456C60.9716 27.344 60.9196 27.212 60.9196 27.06V26.724C60.9196 26.572 60.9716 26.448 61.0756 26.352C61.1796 26.248 61.3076 26.196 61.4596 26.196H64.1956C64.3476 26.196 64.4756 26.248 64.5796 26.352C64.6836 26.448 64.7356 26.572 64.7356 26.724V27.06ZM71.2203 29.448C71.2203 29.6 71.1683 29.732 71.0643 29.844C70.9683 29.948 70.8443 30 70.6923 30H70.3563C70.2043 30 70.0723 29.948 69.9603 29.844C69.8563 29.732 69.8043 29.6 69.8043 29.448V23.988C69.8043 23.956 69.7883 23.936 69.7563 23.928C69.7323 23.912 69.7123 23.912 69.6963 23.928L69.5163 24.108C69.4203 24.22 69.2923 24.276 69.1323 24.276C69.0523 24.276 68.9803 24.26 68.9163 24.228C68.8123 24.188 68.7323 24.12 68.6763 24.024C68.6203 23.928 68.5923 23.828 68.5923 23.724V23.256C68.5923 23.104 68.6443 22.972 68.7483 22.86L69.5643 22.056C69.6203 22.008 69.6803 21.968 69.7443 21.936C69.8083 21.904 69.8803 21.888 69.9603 21.888H70.6923C70.8443 21.888 70.9683 21.94 71.0643 22.044C71.1683 22.148 71.2203 22.28 71.2203 22.44V29.448ZM79.9594 28.416C79.9594 28.704 79.8874 28.968 79.7434 29.208C79.5994 29.448 79.4074 29.64 79.1674 29.784C78.9274 29.928 78.6634 30 78.3754 30H76.0714C75.8154 30 75.5714 29.94 75.3394 29.82L75.3274 29.808C75.0634 29.672 74.8554 29.48 74.7034 29.232C74.5514 28.976 74.4754 28.704 74.4754 28.416V23.484C74.4754 23.188 74.5474 22.92 74.6914 22.68C74.8354 22.44 75.0274 22.248 75.2674 22.104C75.5154 21.96 75.7834 21.888 76.0714 21.888H78.3754C78.4474 21.888 78.5434 21.9 78.6634 21.924C78.7914 21.94 78.9234 21.984 79.0594 22.056H79.0714C79.3434 22.192 79.5594 22.388 79.7194 22.644C79.8794 22.892 79.9594 23.172 79.9594 23.484V28.416ZM77.7274 23.46C77.7434 23.42 77.7434 23.388 77.7274 23.364C77.7114 23.332 77.6834 23.316 77.6434 23.316H76.0714C76.0314 23.316 75.9914 23.332 75.9514 23.364C75.9194 23.396 75.9034 23.436 75.9034 23.484V26.604C75.9034 26.636 75.9194 26.656 75.9514 26.664C75.9834 26.672 76.0074 26.66 76.0234 26.628L77.7274 23.46ZM78.5314 28.416V25.212C78.5314 25.172 78.5154 25.148 78.4834 25.14C78.4594 25.132 78.4354 25.144 78.4114 25.176L76.6714 28.44C76.6634 28.472 76.6674 28.504 76.6834 28.536C76.6994 28.568 76.7234 28.584 76.7554 28.584H78.3754C78.4154 28.584 78.4514 28.568 78.4834 28.536C78.5154 28.496 78.5314 28.456 78.5314 28.416ZM85.5964 29.448C85.5964 29.6 85.5444 29.732 85.4404 29.844C85.3444 29.948 85.2204 30 85.0684 30H84.7324C84.5804 30 84.4484 29.948 84.3364 29.844C84.2324 29.732 84.1804 29.6 84.1804 29.448V23.988C84.1804 23.956 84.1644 23.936 84.1324 23.928C84.1084 23.912 84.0884 23.912 84.0724 23.928L83.8924 24.108C83.7964 24.22 83.6684 24.276 83.5084 24.276C83.4284 24.276 83.3564 24.26 83.2924 24.228C83.1884 24.188 83.1084 24.12 83.0524 24.024C82.9964 23.928 82.9684 23.828 82.9684 23.724V23.256C82.9684 23.104 83.0204 22.972 83.1244 22.86L83.9404 22.056C83.9964 22.008 84.0564 21.968 84.1204 21.936C84.1844 21.904 84.2564 21.888 84.3364 21.888H85.0684C85.2204 21.888 85.3444 21.94 85.4404 22.044C85.5444 22.148 85.5964 22.28 85.5964 22.44V29.448Z"
        fill="#75715E" />
    <rect x="10" y="11" width="80" height="28" rx="5" stroke="#75715E" stroke-width="4" />
    <path
        d="M25.466 77.416C25.466 77.704 25.394 77.968 25.25 78.208C25.106 78.448 24.914 78.64 24.674 78.784C24.434 78.928 24.17 79 23.882 79H21.578C21.322 79 21.078 78.94 20.846 78.82L20.834 78.808C20.57 78.672 20.362 78.48 20.21 78.232C20.058 77.976 19.982 77.704 19.982 77.416V72.484C19.982 72.188 20.054 71.92 20.198 71.68C20.342 71.44 20.534 71.248 20.774 71.104C21.022 70.96 21.29 70.888 21.578 70.888H23.882C23.954 70.888 24.05 70.9 24.17 70.924C24.298 70.94 24.43 70.984 24.566 71.056H24.578C24.85 71.192 25.066 71.388 25.226 71.644C25.386 71.892 25.466 72.172 25.466 72.484V77.416ZM23.234 72.46C23.25 72.42 23.25 72.388 23.234 72.364C23.218 72.332 23.19 72.316 23.15 72.316H21.578C21.538 72.316 21.498 72.332 21.458 72.364C21.426 72.396 21.41 72.436 21.41 72.484V75.604C21.41 75.636 21.426 75.656 21.458 75.664C21.49 75.672 21.514 75.66 21.53 75.628L23.234 72.46ZM24.038 77.416V74.212C24.038 74.172 24.022 74.148 23.99 74.14C23.966 74.132 23.942 74.144 23.918 74.176L22.178 77.44C22.17 77.472 22.174 77.504 22.19 77.536C22.206 77.568 22.23 77.584 22.262 77.584H23.882C23.922 77.584 23.958 77.568 23.99 77.536C24.022 77.496 24.038 77.456 24.038 77.416ZM29.6787 78.1C29.6787 78.348 29.5867 78.56 29.4027 78.736C29.2267 78.912 29.0147 79 28.7667 79C28.5267 79 28.3147 78.912 28.1307 78.736C27.9547 78.56 27.8667 78.348 27.8667 78.1C27.8667 77.852 27.9547 77.64 28.1307 77.464C28.3147 77.288 28.5267 77.2 28.7667 77.2C29.0147 77.2 29.2267 77.288 29.4027 77.464C29.5867 77.64 29.6787 77.852 29.6787 78.1ZM36.1758 78.448C36.1758 78.6 36.1238 78.732 36.0198 78.844C35.9238 78.948 35.7998 79 35.6478 79H35.3118C35.1598 79 35.0278 78.948 34.9158 78.844C34.8118 78.732 34.7598 78.6 34.7598 78.448V72.988C34.7598 72.956 34.7438 72.936 34.7118 72.928C34.6878 72.912 34.6678 72.912 34.6518 72.928L34.4718 73.108C34.3758 73.22 34.2478 73.276 34.0878 73.276C34.0078 73.276 33.9358 73.26 33.8718 73.228C33.7678 73.188 33.6878 73.12 33.6318 73.024C33.5758 72.928 33.5478 72.828 33.5478 72.724V72.256C33.5478 72.104 33.5998 71.972 33.7038 71.86L34.5198 71.056C34.5758 71.008 34.6358 70.968 34.6998 70.936C34.7638 70.904 34.8358 70.888 34.9158 70.888H35.6478C35.7998 70.888 35.9238 70.94 36.0198 71.044C36.1238 71.148 36.1758 71.28 36.1758 71.44V78.448ZM44.9149 77.416C44.9149 77.704 44.8429 77.968 44.6989 78.208C44.5549 78.448 44.3629 78.64 44.1229 78.784C43.8829 78.928 43.6189 79 43.3309 79H41.0269C40.7709 79 40.5269 78.94 40.2949 78.82L40.2829 78.808C40.0189 78.672 39.8109 78.48 39.6589 78.232C39.5069 77.976 39.4309 77.704 39.4309 77.416V72.484C39.4309 72.188 39.5029 71.92 39.6469 71.68C39.7909 71.44 39.9829 71.248 40.2229 71.104C40.4709 70.96 40.7389 70.888 41.0269 70.888H43.3309C43.4029 70.888 43.4989 70.9 43.6189 70.924C43.7469 70.94 43.8789 70.984 44.0149 71.056H44.0269C44.2989 71.192 44.5149 71.388 44.6749 71.644C44.8349 71.892 44.9149 72.172 44.9149 72.484V77.416ZM42.6829 72.46C42.6989 72.42 42.6989 72.388 42.6829 72.364C42.6669 72.332 42.6389 72.316 42.5989 72.316H41.0269C40.9869 72.316 40.9469 72.332 40.9069 72.364C40.8749 72.396 40.8589 72.436 40.8589 72.484V75.604C40.8589 75.636 40.8749 75.656 40.9069 75.664C40.9389 75.672 40.9629 75.66 40.9789 75.628L42.6829 72.46ZM43.4869 77.416V74.212C43.4869 74.172 43.4709 74.148 43.4389 74.14C43.4149 74.132 43.3909 74.144 43.3669 74.176L41.6269 77.44C41.6189 77.472 41.6229 77.504 41.6389 77.536C41.6549 77.568 41.6789 77.584 41.7109 77.584H43.3309C43.3709 77.584 43.4069 77.568 43.4389 77.536C43.4709 77.496 43.4869 77.456 43.4869 77.416ZM50.5519 78.448C50.5519 78.6 50.4999 78.732 50.3959 78.844C50.2999 78.948 50.1759 79 50.0239 79H49.6879C49.5359 79 49.4039 78.948 49.2919 78.844C49.1879 78.732 49.1359 78.6 49.1359 78.448V72.988C49.1359 72.956 49.1199 72.936 49.0879 72.928C49.0639 72.912 49.0439 72.912 49.0279 72.928L48.8479 73.108C48.7519 73.22 48.6239 73.276 48.4639 73.276C48.3839 73.276 48.3119 73.26 48.2479 73.228C48.1439 73.188 48.0639 73.12 48.0079 73.024C47.9519 72.928 47.9239 72.828 47.9239 72.724V72.256C47.9239 72.104 47.9759 71.972 48.0799 71.86L48.8959 71.056C48.9519 71.008 49.0119 70.968 49.0759 70.936C49.1399 70.904 49.2119 70.888 49.2919 70.888H50.0239C50.1759 70.888 50.2999 70.94 50.3959 71.044C50.4999 71.148 50.5519 71.28 50.5519 71.44V78.448ZM59.291 71.764C59.291 71.932 59.235 72.064 59.123 72.16C59.019 72.264 58.891 72.316 58.739 72.316H55.391C55.287 72.316 55.235 72.368 55.235 72.472V73.744C55.235 73.856 55.287 73.912 55.391 73.912H57.707C58.003 73.912 58.267 73.984 58.499 74.128C58.739 74.272 58.931 74.464 59.075 74.704C59.219 74.936 59.291 75.2 59.291 75.496V77.416C59.291 77.704 59.219 77.968 59.075 78.208C58.931 78.448 58.739 78.64 58.499 78.784C58.259 78.928 57.995 79 57.707 79H55.403C55.115 79 54.847 78.928 54.599 78.784C54.359 78.64 54.167 78.448 54.023 78.208C53.879 77.968 53.807 77.704 53.807 77.416V76.552C53.807 76.4 53.859 76.272 53.963 76.168C54.075 76.056 54.207 76 54.359 76H54.695C54.839 76 54.963 76.056 55.067 76.168C55.179 76.272 55.235 76.4 55.235 76.552V77.416C55.235 77.456 55.251 77.496 55.283 77.536C55.323 77.568 55.363 77.584 55.403 77.584H57.707C57.747 77.584 57.783 77.568 57.815 77.536C57.847 77.496 57.863 77.456 57.863 77.416V75.496C57.863 75.456 57.847 75.42 57.815 75.388C57.783 75.348 57.747 75.328 57.707 75.328H54.359C54.199 75.328 54.071 75.272 53.975 75.16C53.863 75.064 53.807 74.936 53.807 74.776V71.44C53.807 71.28 53.859 71.148 53.963 71.044C54.075 70.94 54.207 70.888 54.359 70.888H58.739C58.891 70.888 59.019 70.94 59.123 71.044C59.235 71.148 59.291 71.28 59.291 71.44V71.764ZM67.1997 77.416C67.1997 77.704 67.1277 77.968 66.9837 78.208C66.8397 78.448 66.6477 78.64 66.4077 78.784C66.1677 78.928 65.9037 79 65.6157 79H63.3117C63.0237 79 62.7557 78.928 62.5077 78.784C62.2677 78.64 62.0757 78.448 61.9317 78.208C61.7877 77.968 61.7157 77.704 61.7157 77.416V72.484C61.7157 72.188 61.7877 71.92 61.9317 71.68C62.0757 71.44 62.2677 71.248 62.5077 71.104C62.7557 70.96 63.0237 70.888 63.3117 70.888H65.6157C65.9037 70.888 66.1677 70.96 66.4077 71.104C66.6477 71.248 66.8397 71.44 66.9837 71.68C67.1277 71.92 67.1997 72.188 67.1997 72.484V72.784C67.1997 72.936 67.1437 73.068 67.0317 73.18C66.9277 73.292 66.7997 73.348 66.6477 73.348H66.3237C66.1717 73.348 66.0397 73.292 65.9277 73.18C65.8237 73.068 65.7717 72.936 65.7717 72.784V72.484C65.7717 72.372 65.7197 72.316 65.6157 72.316H63.3117C63.2717 72.316 63.2317 72.332 63.1917 72.364C63.1597 72.396 63.1437 72.436 63.1437 72.484V73.756C63.1437 73.86 63.1957 73.912 63.2997 73.912H65.6157C65.9037 73.912 66.1677 73.984 66.4077 74.128C66.6477 74.264 66.8397 74.452 66.9837 74.692C67.1277 74.932 67.1997 75.2 67.1997 75.496V77.416ZM65.7717 77.416V75.496C65.7717 75.384 65.7197 75.328 65.6157 75.328H63.2997C63.1957 75.328 63.1437 75.38 63.1437 75.484V77.416C63.1437 77.456 63.1597 77.496 63.1917 77.536C63.2317 77.568 63.2717 77.584 63.3117 77.584H65.6157C65.6557 77.584 65.6917 77.568 65.7237 77.536C65.7557 77.496 65.7717 77.456 65.7717 77.416ZM75.1085 78.448C75.1085 78.6 75.0525 78.732 74.9405 78.844C74.8365 78.948 74.7085 79 74.5565 79H71.2205C70.9325 79 70.6645 78.928 70.4165 78.784C70.1765 78.64 69.9845 78.448 69.8405 78.208C69.6965 77.968 69.6245 77.704 69.6245 77.416V76.324C69.6245 75.996 69.7205 75.692 69.9125 75.412C70.1045 75.132 70.3605 74.936 70.6805 74.824L73.5605 73.744C73.6405 73.72 73.6805 73.66 73.6805 73.564V72.484C73.6805 72.372 73.6285 72.316 73.5245 72.316H71.2205C71.1805 72.316 71.1405 72.332 71.1005 72.364C71.0685 72.396 71.0525 72.436 71.0525 72.484V72.808C71.0525 72.96 70.9965 73.088 70.8845 73.192C70.7805 73.296 70.6525 73.348 70.5005 73.348H70.1765C70.0245 73.348 69.8925 73.296 69.7805 73.192C69.6765 73.088 69.6245 72.96 69.6245 72.808V72.484C69.6245 72.188 69.6965 71.92 69.8405 71.68C69.9845 71.44 70.1765 71.248 70.4165 71.104C70.6645 70.96 70.9325 70.888 71.2205 70.888H73.5245C73.8125 70.888 74.0765 70.96 74.3165 71.104C74.5565 71.248 74.7485 71.44 74.8925 71.68C75.0365 71.92 75.1085 72.188 75.1085 72.484V73.564C75.1085 73.9 75.0125 74.208 74.8205 74.488C74.6285 74.768 74.3765 74.964 74.0645 75.076L71.1725 76.156C71.0925 76.18 71.0525 76.236 71.0525 76.324V77.416C71.0525 77.456 71.0685 77.496 71.1005 77.536C71.1405 77.568 71.1805 77.584 71.2205 77.584H74.5565C74.7085 77.584 74.8365 77.636 74.9405 77.74C75.0525 77.844 75.1085 77.976 75.1085 78.136V78.448ZM83.0172 71.764C83.0172 71.932 82.9612 72.064 82.8492 72.16C82.7452 72.264 82.6172 72.316 82.4652 72.316H79.1172C79.0132 72.316 78.9612 72.368 78.9612 72.472V73.744C78.9612 73.856 79.0132 73.912 79.1172 73.912H81.4332C81.7292 73.912 81.9932 73.984 82.2252 74.128C82.4652 74.272 82.6572 74.464 82.8012 74.704C82.9452 74.936 83.0172 75.2 83.0172 75.496V77.416C83.0172 77.704 82.9452 77.968 82.8012 78.208C82.6572 78.448 82.4652 78.64 82.2252 78.784C81.9852 78.928 81.7212 79 81.4332 79H79.1292C78.8412 79 78.5732 78.928 78.3252 78.784C78.0852 78.64 77.8932 78.448 77.7492 78.208C77.6052 77.968 77.5332 77.704 77.5332 77.416V76.552C77.5332 76.4 77.5852 76.272 77.6892 76.168C77.8012 76.056 77.9332 76 78.0852 76H78.4212C78.5652 76 78.6892 76.056 78.7932 76.168C78.9052 76.272 78.9612 76.4 78.9612 76.552V77.416C78.9612 77.456 78.9772 77.496 79.0092 77.536C79.0492 77.568 79.0892 77.584 79.1292 77.584H81.4332C81.4732 77.584 81.5092 77.568 81.5412 77.536C81.5732 77.496 81.5892 77.456 81.5892 77.416V75.496C81.5892 75.456 81.5732 75.42 81.5412 75.388C81.5092 75.348 81.4732 75.328 81.4332 75.328H78.0852C77.9252 75.328 77.7972 75.272 77.7012 75.16C77.5892 75.064 77.5332 74.936 77.5332 74.776V71.44C77.5332 71.28 77.5852 71.148 77.6892 71.044C77.8012 70.94 77.9332 70.888 78.0852 70.888H82.4652C82.6172 70.888 82.7452 70.94 82.8492 71.044C82.9612 71.148 83.0172 71.28 83.0172 71.44V71.764Z"
        fill="#75715E" />
    <rect x="10" y="60" width="80" height="28" rx="5" stroke="#75715E" stroke-width="4" />
    <path
        d="M48.2929 56.7071C48.6834 57.0976 49.3166 57.0976 49.7071 56.7071L56.0711 50.3431C56.4616 49.9526 56.4616 49.3195 56.0711 48.9289C55.6805 48.5384 55.0474 48.5384 54.6569 48.9289L49 54.5858L43.3431 48.9289C42.9526 48.5384 42.3195 48.5384 41.9289 48.9289C41.5384 49.3195 41.5384 49.9526 41.9289 50.3431L48.2929 56.7071ZM48 40L48 56L50 56L50 40L48 40Z"
        fill="#75715E" />
</svg>