<svg width="100" height="100" viewBox="0 0 100 100" fill="none" xmlns="http://www.w3.org/2000/svg">
    <circle cx="16.5" cy="51.5" r="4.5" stroke="#75715E" stroke-width="4" />
    <circle cx="75.5" cy="58.5" r="6.5" fill="#75715E" />
    <circle cx="35.5" cy="21.5" r="4.5" stroke="#75715E" stroke-width="4" />
    <circle cx="75.5" cy="23.5" r="4.5" stroke="#75715E" stroke-width="4" />
    <path fill-rule="evenodd" clip-rule="evenodd"
        d="M12.1207 48.8599L10.4077 51.5647L12.6716 53.8285L42.1716 83.3285L47.8284 77.6717L20.5923 50.4355L36.5975 25.1643L71.5 27.7181V56.0001H79.5V24.0001V20.2821L75.7919 20.0108L35.8329 17.0869C37.6423 17.4702 39 19.0766 39 21.0001C39 23.2092 37.2092 25.0001 35 25.0001C32.7909 25.0001 31 23.2092 31 21.0001C31 18.8747 32.6577 17.1365 34.7506 17.0077L32.4026 16.8359L31.1207 18.8599L12.1207 48.8599ZM16 55.0001C18.2091 55.0001 20 53.2092 20 51.0001C20 48.791 18.2091 47.0001 16 47.0001C13.7909 47.0001 12 48.791 12 51.0001C12 53.2092 13.7909 55.0001 16 55.0001ZM75 28.0001C77.2092 28.0001 79 26.2092 79 24.0001C79 21.791 77.2092 20.0001 75 20.0001C72.7909 20.0001 71 21.791 71 24.0001C71 26.2092 72.7909 28.0001 75 28.0001Z"
        fill="#75715E" />
    <path fill-rule="evenodd" clip-rule="evenodd"
        d="M63.0681 89C64.0027 89 64.8287 88.3535 64.9259 87.4239C64.9749 86.9557 65 86.4807 65 86C65 78.268 58.5081 72 50.5 72C42.4919 72 36 78.268 36 86C36 86.4807 36.0251 86.9557 36.0741 87.4239C36.1713 88.3535 36.9973 89 37.9319 89H63.0681Z"
        fill="#75715E" />
</svg>