<svg width="100" height="100" viewBox="0 0 100 100" fill="none" xmlns="http://www.w3.org/2000/svg">
    <path
        d="M11 80L15.714 76.4645C17.6178 75.0367 20.2696 75.1719 22.0182 76.786L22.4448 77.1798C24.1515 78.7553 26.7976 78.7024 28.44 77.06V77.06C30.13 75.37 32.87 75.37 34.56 77.06L34.7567 77.2567C36.3419 78.8419 38.8381 79.0555 40.6695 77.7627L42.1845 76.6933C44.4836 75.0704 47.5444 75.0296 49.886 76.5907L50.7847 77.1898C53.3766 78.9177 56.7129 79.0657 59.4475 77.5741L61.8716 76.2519C64.458 74.8411 67.5711 74.7855 70.2062 76.1031L73.0249 77.5125C76.074 79.037 79.7227 78.708 82.4498 76.6626L86 74"
        stroke="#75715E" stroke-width="4" stroke-linecap="round" />
    <mask id="path-2-inside-1_102_3" fill="white">
        <path fill-rule="evenodd" clip-rule="evenodd"
            d="M84 49.5C84 65.7924 73.7026 79 61 79C57.9545 79 55.0472 78.2408 52.3869 76.8618C49.7219 78.2287 46.701 79 43.5 79C39.9589 79 36.6382 78.0561 33.7759 76.4062C31.7937 78.0274 29.2604 79 26.5 79C21.5034 79 17.2511 75.8134 15.6644 71.3616C16.6959 71.7735 17.8215 72 19 72C21.9247 72 24.5236 70.6049 26.1675 68.4439C27.3174 66.9322 28 65.0458 28 63C28 62.4773 27.9554 61.9651 27.8699 61.4669C27.5043 59.3363 26.3897 57.4618 24.807 56.1238C25.3595 56.0422 25.9248 56 26.5 56C31.1249 56 35.1121 58.7301 36.938 62.6666C38.0146 62.4179 39.04 62.0355 39.9958 61.5378C43.5725 59.6753 46.1744 56.1984 46.8356 52.0733C46.9438 51.3981 47 50.7056 47 50C47 45.9979 45.1915 42.4182 42.3473 40.0335C42.7287 40.0113 43.113 40 43.5 40C50.9825 40 57.4806 44.2144 60.7503 50.3989C65.644 47.9286 69 42.8562 69 37C69 28.7157 62.2843 22 54 22C53.4987 22 53.0031 22.0246 52.5144 22.0726C55.14 20.7352 58.0031 20 61 20C73.7026 20 84 33.2076 84 49.5ZM78.3201 46.6159C78.5322 46.7927 78.5609 47.108 78.3841 47.3201L77.3557 48.5542C76.3772 49.7283 74.6018 49.8089 73.521 48.7281C72.9301 48.1372 71.9839 48.1009 71.3494 48.6447L69.3254 50.3796C69.1157 50.5593 68.8001 50.5351 68.6204 50.3254C68.4407 50.1157 68.4649 49.8001 68.6746 49.6204L70.6987 47.8855C71.7299 47.0016 73.2677 47.0606 74.2281 48.021C74.8931 48.686 75.9855 48.6364 76.5875 47.914L77.6159 46.6799C77.7927 46.4678 78.108 46.4391 78.3201 46.6159ZM71.3841 65.3201C71.5609 65.108 71.5322 64.7927 71.3201 64.6159C71.108 64.4391 70.7927 64.4678 70.6159 64.6799L69.5875 65.914C68.9855 66.6364 67.8931 66.686 67.2281 66.021C66.2677 65.0606 64.7299 65.0016 63.6987 65.8855L61.6746 67.6204C61.4649 67.8001 61.4407 68.1157 61.6204 68.3254C61.8001 68.5351 62.1157 68.5593 62.3254 68.3796L64.3494 66.6447C64.9839 66.1009 65.9301 66.1372 66.521 66.7281C67.6018 67.8089 69.3772 67.7283 70.3557 66.5542L71.3841 65.3201ZM58.3201 56.6159C58.5322 56.7927 58.5609 57.108 58.3841 57.3201L57.3557 58.5542C56.3772 59.7283 54.6018 59.8089 53.521 58.7281C52.9301 58.1372 51.9839 58.1009 51.3494 58.6447L49.3254 60.3796C49.1157 60.5593 48.8001 60.5351 48.6204 60.3254C48.4407 60.1157 48.4649 59.8001 48.6746 59.6204L50.6987 57.8855C51.7299 57.0016 53.2677 57.0606 54.2281 58.021C54.8931 58.686 55.9855 58.6364 56.5875 57.914L57.6159 56.6799C57.7927 56.4678 58.108 56.4391 58.3201 56.6159ZM39.3841 70.3201C39.5609 70.108 39.5322 69.7927 39.3201 69.6159C39.108 69.4391 38.7927 69.4678 38.6159 69.6799L37.5875 70.914C36.9855 71.6364 35.8931 71.686 35.2281 71.021C34.2677 70.0606 32.7299 70.0016 31.6987 70.8855L29.6746 72.6204C29.4649 72.8001 29.4407 73.1157 29.6204 73.3254C29.8001 73.5351 30.1157 73.5593 30.3254 73.3796L32.3495 71.6447C32.9839 71.1009 33.9301 71.1372 34.521 71.7281C35.6018 72.8089 37.3772 72.7283 38.3557 71.5542L39.3841 70.3201Z" />
    </mask>
    <path fill-rule="evenodd" clip-rule="evenodd"
        d="M84 49.5C84 65.7924 73.7026 79 61 79C57.9545 79 55.0472 78.2408 52.3869 76.8618C49.7219 78.2287 46.701 79 43.5 79C39.9589 79 36.6382 78.0561 33.7759 76.4062C31.7937 78.0274 29.2604 79 26.5 79C21.5034 79 17.2511 75.8134 15.6644 71.3616C16.6959 71.7735 17.8215 72 19 72C21.9247 72 24.5236 70.6049 26.1675 68.4439C27.3174 66.9322 28 65.0458 28 63C28 62.4773 27.9554 61.9651 27.8699 61.4669C27.5043 59.3363 26.3897 57.4618 24.807 56.1238C25.3595 56.0422 25.9248 56 26.5 56C31.1249 56 35.1121 58.7301 36.938 62.6666C38.0146 62.4179 39.04 62.0355 39.9958 61.5378C43.5725 59.6753 46.1744 56.1984 46.8356 52.0733C46.9438 51.3981 47 50.7056 47 50C47 45.9979 45.1915 42.4182 42.3473 40.0335C42.7287 40.0113 43.113 40 43.5 40C50.9825 40 57.4806 44.2144 60.7503 50.3989C65.644 47.9286 69 42.8562 69 37C69 28.7157 62.2843 22 54 22C53.4987 22 53.0031 22.0246 52.5144 22.0726C55.14 20.7352 58.0031 20 61 20C73.7026 20 84 33.2076 84 49.5ZM78.3201 46.6159C78.5322 46.7927 78.5609 47.108 78.3841 47.3201L77.3557 48.5542C76.3772 49.7283 74.6018 49.8089 73.521 48.7281C72.9301 48.1372 71.9839 48.1009 71.3494 48.6447L69.3254 50.3796C69.1157 50.5593 68.8001 50.5351 68.6204 50.3254C68.4407 50.1157 68.4649 49.8001 68.6746 49.6204L70.6987 47.8855C71.7299 47.0016 73.2677 47.0606 74.2281 48.021C74.8931 48.686 75.9855 48.6364 76.5875 47.914L77.6159 46.6799C77.7927 46.4678 78.108 46.4391 78.3201 46.6159ZM71.3841 65.3201C71.5609 65.108 71.5322 64.7927 71.3201 64.6159C71.108 64.4391 70.7927 64.4678 70.6159 64.6799L69.5875 65.914C68.9855 66.6364 67.8931 66.686 67.2281 66.021C66.2677 65.0606 64.7299 65.0016 63.6987 65.8855L61.6746 67.6204C61.4649 67.8001 61.4407 68.1157 61.6204 68.3254C61.8001 68.5351 62.1157 68.5593 62.3254 68.3796L64.3494 66.6447C64.9839 66.1009 65.9301 66.1372 66.521 66.7281C67.6018 67.8089 69.3772 67.7283 70.3557 66.5542L71.3841 65.3201ZM58.3201 56.6159C58.5322 56.7927 58.5609 57.108 58.3841 57.3201L57.3557 58.5542C56.3772 59.7283 54.6018 59.8089 53.521 58.7281C52.9301 58.1372 51.9839 58.1009 51.3494 58.6447L49.3254 60.3796C49.1157 60.5593 48.8001 60.5351 48.6204 60.3254C48.4407 60.1157 48.4649 59.8001 48.6746 59.6204L50.6987 57.8855C51.7299 57.0016 53.2677 57.0606 54.2281 58.021C54.8931 58.686 55.9855 58.6364 56.5875 57.914L57.6159 56.6799C57.7927 56.4678 58.108 56.4391 58.3201 56.6159ZM39.3841 70.3201C39.5609 70.108 39.5322 69.7927 39.3201 69.6159C39.108 69.4391 38.7927 69.4678 38.6159 69.6799L37.5875 70.914C36.9855 71.6364 35.8931 71.686 35.2281 71.021C34.2677 70.0606 32.7299 70.0016 31.6987 70.8855L29.6746 72.6204C29.4649 72.8001 29.4407 73.1157 29.6204 73.3254C29.8001 73.5351 30.1157 73.5593 30.3254 73.3796L32.3495 71.6447C32.9839 71.1009 33.9301 71.1372 34.521 71.7281C35.6018 72.8089 37.3772 72.7283 38.3557 71.5542L39.3841 70.3201Z"
        fill="#75715E" />
    <path
        d="M52.3869 76.8618L52.8471 75.974L52.3893 75.7367L51.9305 75.972L52.3869 76.8618ZM33.7759 76.4062L34.2752 75.5398L33.6771 75.195L33.1427 75.6321L33.7759 76.4062ZM15.6644 71.3616L16.0352 70.4329L13.9792 69.612L14.7225 71.6974L15.6644 71.3616ZM26.1675 68.4439L26.9634 69.0493L26.9634 69.0493L26.1675 68.4439ZM27.8699 61.4669L26.8843 61.636L26.8843 61.636L27.8699 61.4669ZM24.807 56.1238L24.661 55.1345L22.4701 55.4577L24.1614 56.8874L24.807 56.1238ZM36.938 62.6666L36.0308 63.0874L36.3723 63.8236L37.1631 63.641L36.938 62.6666ZM39.9958 61.5378L39.5339 60.6508L39.5339 60.6508L39.9958 61.5378ZM46.8356 52.0733L45.8482 51.915L45.8482 51.915L46.8356 52.0733ZM42.3473 40.0335L42.2891 39.0352L39.7749 39.1818L41.7048 40.7998L42.3473 40.0335ZM60.7503 50.3989L59.8662 50.8663L60.3249 51.7338L61.2009 51.2916L60.7503 50.3989ZM52.5144 22.0726L52.0605 21.1816L52.6123 23.0678L52.5144 22.0726ZM78.3841 47.3201L77.6159 46.6799L77.6159 46.6799L78.3841 47.3201ZM78.3201 46.6159L77.6799 47.3841L77.6799 47.3841L78.3201 46.6159ZM77.3557 48.5542L78.1239 49.1944L78.1239 49.1944L77.3557 48.5542ZM73.521 48.7281L72.8139 49.4352L72.8139 49.4352L73.521 48.7281ZM71.3494 48.6447L70.6987 47.8855L70.6987 47.8855L71.3494 48.6447ZM69.3254 50.3796L69.9762 51.1389L69.9762 51.1389L69.3254 50.3796ZM68.6746 49.6204L68.0238 48.8611L68.0238 48.8611L68.6746 49.6204ZM70.6987 47.8855L71.3494 48.6447L71.3494 48.6447L70.6987 47.8855ZM74.2281 48.021L73.521 48.7281L73.521 48.7281L74.2281 48.021ZM76.5875 47.914L77.3557 48.5542L77.3557 48.5542L76.5875 47.914ZM77.6159 46.6799L78.3841 47.3201L78.3841 47.3201L77.6159 46.6799ZM71.3201 64.6159L70.6799 65.3841L70.6799 65.3841L71.3201 64.6159ZM71.3841 65.3201L70.6159 64.6799L70.6159 64.6799L71.3841 65.3201ZM70.6159 64.6799L71.3841 65.3201L71.3841 65.3201L70.6159 64.6799ZM69.5875 65.914L70.3557 66.5542L70.3557 66.5542L69.5875 65.914ZM67.2281 66.021L67.9352 65.3139L67.9352 65.3139L67.2281 66.021ZM63.6987 65.8855L63.0479 65.1262L63.0479 65.1262L63.6987 65.8855ZM61.6746 67.6204L61.0238 66.8611L61.0238 66.8611L61.6746 67.6204ZM61.6204 68.3254L62.3796 67.6746L62.3796 67.6746L61.6204 68.3254ZM62.3254 68.3796L62.9762 69.1389L62.9762 69.1389L62.3254 68.3796ZM64.3494 66.6447L63.6987 65.8855L63.6987 65.8855L64.3494 66.6447ZM66.521 66.7281L65.8139 67.4352L65.8139 67.4352L66.521 66.7281ZM70.3557 66.5542L71.1239 67.1944L71.1239 67.1944L70.3557 66.5542ZM58.3841 57.3201L57.6159 56.6799L57.6159 56.6799L58.3841 57.3201ZM58.3201 56.6159L57.6799 57.3841L57.6799 57.3841L58.3201 56.6159ZM57.3557 58.5542L58.1239 59.1944L58.1239 59.1944L57.3557 58.5542ZM53.521 58.7281L52.8139 59.4352L52.8139 59.4352L53.521 58.7281ZM51.3494 58.6447L50.6987 57.8855L50.6987 57.8855L51.3494 58.6447ZM49.3254 60.3796L49.9762 61.1389L49.9762 61.1389L49.3254 60.3796ZM48.6204 60.3254L49.3796 59.6746L49.3796 59.6746L48.6204 60.3254ZM48.6746 59.6204L48.0238 58.8611L48.0238 58.8611L48.6746 59.6204ZM50.6987 57.8855L50.0479 57.1262L50.0479 57.1262L50.6987 57.8855ZM54.2281 58.021L54.9352 57.3139L54.9352 57.3139L54.2281 58.021ZM56.5875 57.914L57.3557 58.5542L57.3557 58.5542L56.5875 57.914ZM57.6159 56.6799L58.3841 57.3201L58.3841 57.3201L57.6159 56.6799ZM39.3201 69.6159L38.6799 70.3841L38.6799 70.3841L39.3201 69.6159ZM39.3841 70.3201L38.6159 69.6799L38.6159 69.6799L39.3841 70.3201ZM38.6159 69.6799L39.3841 70.3201L39.3841 70.3201L38.6159 69.6799ZM37.5875 70.914L36.8193 70.2738L36.8193 70.2738L37.5875 70.914ZM35.2281 71.021L35.9352 70.3139L35.9352 70.3139L35.2281 71.021ZM31.6987 70.8855L31.0479 70.1262L31.0479 70.1262L31.6987 70.8855ZM29.6746 72.6204L30.3254 73.3796L30.3254 73.3796L29.6746 72.6204ZM29.6204 73.3254L30.3796 72.6746L30.3796 72.6746L29.6204 73.3254ZM30.3254 73.3796L29.6746 72.6204L29.6746 72.6204L30.3254 73.3796ZM32.3495 71.6447L33.0002 72.404L33.0002 72.404L32.3495 71.6447ZM34.521 71.7281L35.2281 71.021L35.2281 71.021L34.521 71.7281ZM38.3557 71.5542L39.1239 72.1944L39.1239 72.1944L38.3557 71.5542ZM61 80C74.4722 80 85 66.0987 85 49.5H83C83 65.4861 72.9329 78 61 78V80ZM51.9267 77.7496C54.7202 79.1976 57.7844 80 61 80V78C58.1245 78 55.3742 77.2839 52.8471 75.974L51.9267 77.7496ZM43.5 80C46.8634 80 50.0403 79.1892 52.8433 77.7516L51.9305 75.972C49.4034 77.2682 46.5386 78 43.5 78V80ZM33.2765 77.2726C36.2866 79.0077 39.7789 80 43.5 80V78C40.1388 78 36.9898 77.1045 34.2752 75.5398L33.2765 77.2726ZM26.5 80C29.4996 80 32.2548 78.9422 34.409 77.1802L33.1427 75.6321C31.3327 77.1126 29.0213 78 26.5 78V80ZM14.7225 71.6974C16.4466 76.5349 21.0674 80 26.5 80V78C21.9395 78 18.0556 75.092 16.6064 71.0259L14.7225 71.6974ZM19 71C17.9506 71 16.9508 70.7985 16.0352 70.4329L15.2936 72.2904C16.4411 72.7485 17.6924 73 19 73V71ZM25.3716 67.8384C23.9087 69.7616 21.5991 71 19 71V73C22.2503 73 25.1385 71.4482 26.9634 69.0493L25.3716 67.8384ZM27 63C27 64.8196 26.3937 66.4948 25.3716 67.8384L26.9634 69.0493C28.2411 67.3697 29 65.272 29 63H27ZM26.8843 61.636C26.9603 62.0786 27 62.5343 27 63H29C29 62.4204 28.9506 61.8516 28.8555 61.2977L26.8843 61.636ZM24.1614 56.8874C25.57 58.0783 26.5598 59.7447 26.8843 61.636L28.8555 61.2977C28.4488 58.928 27.2094 56.8453 25.4525 55.3601L24.1614 56.8874ZM26.5 55C25.8758 55 25.2617 55.0458 24.661 55.1345L24.9529 57.113C25.4573 57.0386 25.9738 57 26.5 57V55ZM37.8452 62.2458C35.8615 57.9693 31.5286 55 26.5 55V57C30.7212 57 34.3627 59.4909 36.0308 63.0874L37.8452 62.2458ZM39.5339 60.6508C38.6519 61.1101 37.706 61.4629 36.7129 61.6923L37.1631 63.641C38.3232 63.373 39.428 62.9609 40.4577 62.4247L39.5339 60.6508ZM45.8482 51.915C45.2384 55.7198 42.8374 58.9306 39.5339 60.6508L40.4576 62.4247C44.3076 60.4199 47.1105 56.6771 47.823 52.2315L45.8482 51.915ZM46 50C46 50.6525 45.948 51.292 45.8482 51.915L47.823 52.2315C47.9395 51.5042 48 50.7588 48 50H46ZM41.7048 40.7998C44.3321 43.0026 46 46.3061 46 50H48C48 45.6898 46.0509 41.8338 42.9897 39.2672L41.7048 40.7998ZM43.5 39C43.0936 39 42.6898 39.0118 42.2891 39.0352L42.4055 41.0318C42.7675 41.0107 43.1324 41 43.5 41V39ZM61.6343 49.9315C58.1983 43.4324 51.3676 39 43.5 39V41C50.5974 41 56.7629 44.9964 59.8662 50.8663L61.6343 49.9315ZM68 37C68 42.4644 64.8696 47.1994 60.2997 49.5062L61.2009 51.2916C66.4184 48.6579 70 43.2481 70 37H68ZM54 23C61.732 23 68 29.268 68 37H70C70 28.1634 62.8366 21 54 21V23ZM52.6123 23.0678C53.0685 23.023 53.5314 23 54 23V21C53.466 21 52.9377 21.0262 52.4166 21.0774L52.6123 23.0678ZM61 19C57.8359 19 54.818 19.7769 52.0605 21.1816L52.9683 22.9637C55.4619 21.6935 58.1703 21 61 21V19ZM85 49.5C85 32.9013 74.4722 19 61 19V21C72.9329 21 83 33.5139 83 49.5H85ZM79.1523 47.9603C79.6827 47.3239 79.5967 46.378 78.9603 45.8477L77.6799 47.3841C77.4678 47.2073 77.4391 46.892 77.6159 46.6799L79.1523 47.9603ZM78.1239 49.1944L79.1523 47.9603L77.6159 46.6799L76.5875 47.914L78.1239 49.1944ZM72.8139 49.4352C74.3105 50.9318 76.769 50.8203 78.1239 49.1944L76.5875 47.914C75.9855 48.6364 74.8931 48.686 74.2281 48.021L72.8139 49.4352ZM72.0002 49.404C72.238 49.2002 72.5925 49.2138 72.8139 49.4352L74.2281 48.021C73.2677 47.0606 71.7299 47.0016 70.6987 47.8855L72.0002 49.404ZM69.9762 51.1389L72.0002 49.404L70.6987 47.8855L68.6746 49.6204L69.9762 51.1389ZM67.8611 50.9762C68.4002 51.6052 69.3472 51.678 69.9762 51.1389L68.6746 49.6204C68.8843 49.4407 69.1999 49.4649 69.3796 49.6746L67.8611 50.9762ZM68.0238 48.8611C67.3948 49.4003 67.322 50.3472 67.8611 50.9762L69.3796 49.6746C69.5593 49.8843 69.5351 50.1999 69.3254 50.3796L68.0238 48.8611ZM70.0479 47.1262L68.0238 48.8611L69.3254 50.3796L71.3494 48.6447L70.0479 47.1262ZM74.9352 47.3139C73.6054 45.984 71.4758 45.9023 70.0479 47.1262L71.3494 48.6447C71.9839 48.1009 72.9301 48.1372 73.521 48.7281L74.9352 47.3139ZM75.8193 47.2738C75.5937 47.5445 75.1844 47.5631 74.9352 47.3139L73.521 48.7281C74.6018 49.8089 76.3772 49.7283 77.3557 48.5542L75.8193 47.2738ZM76.8477 46.0397L75.8193 47.2738L77.3557 48.5542L78.3841 47.3201L76.8477 46.0397ZM78.9603 45.8477C78.3239 45.3173 77.378 45.4033 76.8477 46.0397L78.3841 47.3201C78.2073 47.5322 77.892 47.5609 77.6799 47.3841L78.9603 45.8477ZM70.6799 65.3841C70.4678 65.2073 70.4391 64.892 70.6159 64.6799L72.1523 65.9603C72.6827 65.3239 72.5967 64.378 71.9603 63.8477L70.6799 65.3841ZM71.3841 65.3201C71.2073 65.5322 70.892 65.5609 70.6799 65.3841L71.9603 63.8477C71.3239 63.3173 70.378 63.4033 69.8477 64.0397L71.3841 65.3201ZM70.3557 66.5542L71.3841 65.3201L69.8477 64.0397L68.8193 65.2738L70.3557 66.5542ZM66.521 66.7281C67.6018 67.8089 69.3772 67.7283 70.3557 66.5542L68.8193 65.2738C68.5937 65.5445 68.1844 65.5631 67.9352 65.3139L66.521 66.7281ZM64.3494 66.6447C64.9839 66.1009 65.9301 66.1372 66.521 66.7281L67.9352 65.3139C66.6054 63.984 64.4758 63.9023 63.0479 65.1262L64.3494 66.6447ZM62.3254 68.3796L64.3494 66.6447L63.0479 65.1262L61.0238 66.8611L62.3254 68.3796ZM62.3796 67.6746C62.5593 67.8843 62.5351 68.1999 62.3254 68.3796L61.0238 66.8611C60.3948 67.4003 60.322 68.3472 60.8611 68.9762L62.3796 67.6746ZM61.6746 67.6204C61.8843 67.4407 62.1999 67.4649 62.3796 67.6746L60.8611 68.9762C61.4002 69.6052 62.3472 69.678 62.9762 69.1389L61.6746 67.6204ZM63.6987 65.8855L61.6746 67.6204L62.9762 69.1389L65.0002 67.404L63.6987 65.8855ZM67.2281 66.021C66.2677 65.0606 64.7299 65.0016 63.6987 65.8855L65.0002 67.404C65.238 67.2002 65.5925 67.2138 65.8139 67.4352L67.2281 66.021ZM69.5875 65.914C68.9855 66.6364 67.8931 66.686 67.2281 66.021L65.8139 67.4352C67.3105 68.9318 69.769 68.8203 71.1239 67.1944L69.5875 65.914ZM70.6159 64.6799L69.5875 65.914L71.1239 67.1944L72.1523 65.9603L70.6159 64.6799ZM59.1523 57.9603C59.6827 57.3239 59.5967 56.378 58.9603 55.8477L57.6799 57.3841C57.4678 57.2073 57.4391 56.892 57.6159 56.6799L59.1523 57.9603ZM58.1239 59.1944L59.1523 57.9603L57.6159 56.6799L56.5875 57.914L58.1239 59.1944ZM52.8139 59.4352C54.3105 60.9318 56.769 60.8203 58.1239 59.1944L56.5875 57.914C55.9855 58.6364 54.8931 58.686 54.2281 58.021L52.8139 59.4352ZM52.0002 59.404C52.238 59.2002 52.5925 59.2138 52.8139 59.4352L54.2281 58.021C53.2677 57.0606 51.7299 57.0016 50.6987 57.8855L52.0002 59.404ZM49.9762 61.1389L52.0002 59.404L50.6987 57.8855L48.6746 59.6204L49.9762 61.1389ZM47.8611 60.9762C48.4002 61.6052 49.3472 61.678 49.9762 61.1389L48.6746 59.6204C48.8843 59.4407 49.1999 59.4649 49.3796 59.6746L47.8611 60.9762ZM48.0238 58.8611C47.3948 59.4003 47.322 60.3472 47.8611 60.9762L49.3796 59.6746C49.5593 59.8843 49.5351 60.1999 49.3254 60.3796L48.0238 58.8611ZM50.0479 57.1262L48.0238 58.8611L49.3254 60.3796L51.3494 58.6447L50.0479 57.1262ZM54.9352 57.3139C53.6054 55.984 51.4758 55.9023 50.0479 57.1262L51.3494 58.6447C51.9839 58.1009 52.9301 58.1372 53.521 58.7281L54.9352 57.3139ZM55.8193 57.2738C55.5937 57.5445 55.1844 57.5631 54.9352 57.3139L53.521 58.7281C54.6018 59.8089 56.3772 59.7283 57.3557 58.5542L55.8193 57.2738ZM56.8477 56.0397L55.8193 57.2738L57.3557 58.5542L58.3841 57.3201L56.8477 56.0397ZM58.9603 55.8477C58.3239 55.3173 57.378 55.4033 56.8477 56.0397L58.3841 57.3201C58.2073 57.5322 57.892 57.5609 57.6799 57.3841L58.9603 55.8477ZM38.6799 70.3841C38.4678 70.2073 38.4391 69.892 38.6159 69.6799L40.1523 70.9603C40.6827 70.3239 40.5967 69.378 39.9603 68.8477L38.6799 70.3841ZM39.3841 70.3201C39.2073 70.5322 38.892 70.5609 38.6799 70.3841L39.9603 68.8477C39.3239 68.3173 38.378 68.4033 37.8477 69.0397L39.3841 70.3201ZM38.3557 71.5542L39.3841 70.3201L37.8477 69.0397L36.8193 70.2738L38.3557 71.5542ZM34.521 71.7281C35.6018 72.8089 37.3772 72.7283 38.3557 71.5542L36.8193 70.2738C36.5937 70.5445 36.1844 70.5631 35.9352 70.3139L34.521 71.7281ZM32.3495 71.6447C32.9839 71.1009 33.9301 71.1372 34.521 71.7281L35.9352 70.3139C34.6054 68.984 32.4758 68.9023 31.0479 70.1262L32.3495 71.6447ZM30.3254 73.3796L32.3495 71.6447L31.0479 70.1262L29.0238 71.8611L30.3254 73.3796ZM30.3796 72.6746C30.5593 72.8843 30.5351 73.1999 30.3254 73.3796L29.0238 71.8611C28.3948 72.4002 28.322 73.3472 28.8611 73.9762L30.3796 72.6746ZM29.6746 72.6204C29.8843 72.4407 30.1999 72.4649 30.3796 72.6746L28.8611 73.9762C29.4002 74.6052 30.3472 74.678 30.9762 74.1389L29.6746 72.6204ZM31.6987 70.8855L29.6746 72.6204L30.9762 74.1389L33.0002 72.404L31.6987 70.8855ZM35.2281 71.021C34.2677 70.0606 32.7299 70.0016 31.6987 70.8855L33.0002 72.404C33.238 72.2002 33.5925 72.2138 33.8139 72.4352L35.2281 71.021ZM37.5875 70.914C36.9855 71.6364 35.8931 71.686 35.2281 71.021L33.8139 72.4352C35.3105 73.9318 37.769 73.8203 39.1239 72.1944L37.5875 70.914ZM38.6159 69.6799L37.5875 70.914L39.1239 72.1944L40.1523 70.9603L38.6159 69.6799Z"
        fill="#75715E" mask="url(#path-2-inside-1_102_3)" />
</svg>