<svg width="49" height="54" viewBox="0 0 49 54" fill="none" xmlns="http://www.w3.org/2000/svg">
<path d="M42.4251 0.402588C45.5419 0.402588 48.0521 2.92269 48.2 5.89163V53.5974L42.2688 48.5588L39.0139 45.5982L35.4549 42.498L36.936 47.3819H5.82703C2.71845 47.3819 0.200012 45.0264 0.200012 41.8929V5.9016C0.200012 2.93267 2.72012 0.412562 5.837 0.412562H42.4084L42.4251 0.402588ZM28.8654 12.9998H28.7955L28.3451 13.442C32.9431 14.7752 35.1673 16.8531 35.1673 16.8531C32.2067 15.3719 29.5303 14.6272 26.8639 14.3247C24.9422 14.0304 23.0106 14.1867 21.3832 14.3247H20.9327C19.8937 14.3247 17.6778 14.7752 14.7072 15.9604C13.6766 16.4109 13.0798 16.7051 13.0798 16.7051C13.0798 16.7051 15.2957 14.4793 20.1963 13.294L19.8937 12.9998C19.8937 12.9998 16.1884 12.8518 12.1888 15.8141C12.1888 15.8141 8.18921 22.7843 8.18921 31.3719C8.18921 31.3719 10.4051 35.2252 16.4843 35.3715C16.4843 35.3715 17.3753 34.1946 18.268 33.1556C14.8568 32.1167 13.5236 30.0387 13.5236 30.0387C13.5236 30.0387 13.8262 30.1867 14.2684 30.4809H14.398C14.4679 30.4809 14.5028 30.5158 14.536 30.5507V30.5674C14.5709 30.6023 14.6058 30.6272 14.6657 30.6272C15.4021 30.9298 16.1285 31.224 16.727 31.5182C17.7659 31.9604 19.0908 32.4092 20.7182 32.7051C22.7795 33.0077 25.1417 33.1473 27.8347 32.7051C29.1596 32.4026 30.4928 32.1167 31.826 31.5182C32.6838 31.076 33.7476 30.6355 34.9163 29.8825C34.9163 29.8825 33.5914 31.9604 30.0323 32.9994C30.7604 34.03 31.7894 35.2153 31.7894 35.2153C37.8752 35.0773 40.2391 31.224 40.3687 31.3886C40.3687 22.8092 36.3426 15.8307 36.3426 15.8307C32.7236 13.1378 29.3292 13.0347 28.7324 13.0347L28.8537 12.9915L28.8654 12.9998ZM29.2377 22.7843C30.797 22.7843 32.0521 24.1092 32.0521 25.7366C32.0521 27.3823 30.7887 28.7055 29.2377 28.7055C27.6785 28.7055 26.4234 27.3807 26.4234 25.7532C26.4234 24.1075 27.6868 22.7843 29.2377 22.7843ZM19.1689 22.7843C20.7182 22.7843 21.975 24.1092 21.975 25.7366C21.975 27.3823 20.7116 28.7055 19.1606 28.7055C17.6014 28.7055 16.338 27.3807 16.338 25.7532C16.338 24.1075 17.6014 22.7843 19.1606 22.7843H19.1689Z" fill="#75715E"/>
</svg>
