<svg width="48" height="48" viewBox="0 0 48 48" fill="none" xmlns="http://www.w3.org/2000/svg">
<path d="M24.0015 0.591222C10.7422 0.591222 0 11.3424 0 24.5927C0 35.2029 6.87643 44.1959 16.4065 47.3686C17.6111 47.5952 18.0461 46.8526 18.0461 46.2106C18.0461 45.6405 18.0326 44.1329 18.0236 42.1318C11.3437 43.5779 9.93662 38.9051 9.93662 38.9051C8.84305 36.1389 7.26495 35.3964 7.26495 35.3964C5.09282 33.9128 7.43747 33.9443 7.43747 33.9443C9.84362 34.1078 11.1097 36.412 11.1097 36.412C13.2503 40.0842 16.726 39.0221 18.1016 38.4041C18.3116 36.8575 18.9372 35.7939 19.6182 35.2014C14.2899 34.5998 8.68704 32.5372 8.68704 23.3401C8.68704 20.7135 9.6171 18.5743 11.1547 16.8942C10.8892 16.2927 10.0761 13.8475 11.3662 10.5413C11.3662 10.5413 13.3748 9.9008 17.9666 13.003C19.8882 12.4705 21.9284 12.2049 23.967 12.1914C26.0071 12.2049 28.0458 12.472 29.9674 13.003C34.5322 9.9008 36.5393 10.5413 36.5393 10.5413C37.8279 13.8475 37.0148 16.2912 36.7808 16.8942C38.3034 18.5743 39.2335 20.715 39.2335 23.3401C39.2335 32.5582 33.6231 34.5908 28.2888 35.1774C29.1228 35.8959 29.9044 37.3735 29.9044 39.6162C29.9044 42.8264 29.8744 45.4125 29.8744 46.1941C29.8744 46.8181 30.2944 47.5682 31.5305 47.3266C41.1311 44.1869 48 35.1864 48 24.5912C48 11.3409 37.2578 0.589722 23.9985 0.589722L24.0015 0.591222Z" fill="#75715E"/>
</svg>
