<svg width="39" height="40" viewBox="0 0 39 40" fill="none" xmlns="http://www.w3.org/2000/svg">
<path d="M25.8801 19.9999C25.8801 16.3999 23.0001 13.5199 19.4001 13.5199C15.8001 13.5199 12.9201 16.3999 12.9201 19.9999C12.9201 23.5999 15.8001 26.4799 19.4001 26.4799C23.0001 26.4799 25.8801 23.5999 25.8801 19.9999ZM29.2401 19.9999C29.2401 25.5199 24.9201 29.8399 19.4001 29.8399C13.8801 29.8399 9.56007 25.5199 9.56007 19.9999C9.56007 14.4799 13.8801 10.1599 19.4001 10.1599C24.9201 10.1599 29.2401 14.4799 29.2401 19.9999ZM31.8801 9.67993C31.8801 11.1199 30.9201 12.0799 29.4801 12.0799C28.0401 12.0799 27.0801 11.1199 27.0801 9.67993C27.0801 8.23993 28.0401 7.27993 29.4801 7.27993C30.9201 7.27993 31.8801 8.47993 31.8801 9.67993ZM19.4001 4.15993C16.5201 4.15993 10.5201 3.91993 8.12007 4.87993C6.44007 5.59993 5.00007 7.03993 4.52007 8.71993C3.56007 11.1199 3.80007 17.1199 3.80007 19.9999C3.80007 22.8799 3.56007 28.8799 4.52007 31.2799C5.00007 32.9599 6.44007 34.3999 8.12007 34.8799C10.5201 35.8399 16.7601 35.5999 19.4001 35.5999C22.0401 35.5999 28.2801 35.8399 30.6801 34.8799C32.3601 34.1599 33.5601 32.9599 34.2801 31.2799C35.2401 28.6399 35.0001 22.6399 35.0001 19.9999C35.0001 17.3599 35.2401 11.1199 34.2801 8.71993C33.8001 7.03993 32.3601 5.59993 30.6801 5.11993C28.2801 3.91993 22.2801 4.15993 19.4001 4.15993ZM38.6001 19.9999V27.9199C38.6001 30.7999 37.6401 33.6799 35.4801 36.0799C33.3201 38.2399 30.4401 39.1999 27.3201 39.1999H11.4801C8.60007 39.1999 5.72007 38.2399 3.32007 36.0799C1.40007 33.9199 0.200073 31.0399 0.200073 27.9199V19.9999V12.0799C0.200073 8.95993 1.40007 6.07993 3.32007 3.91993C5.72007 1.99993 8.60007 0.799927 11.4801 0.799927H27.3201C30.2001 0.799927 33.0801 1.75993 35.4801 3.91993C37.4001 6.07993 38.6001 8.95993 38.6001 12.0799V19.9999Z" fill="#75715E"/>
</svg>
