<svg width="42" height="30" viewBox="0 0 42 30" fill="none" xmlns="http://www.w3.org/2000/svg">
<path d="M41.3999 25.7999V4.19985C41.3999 2.20785 39.7919 0.599854 37.7999 0.599854H4.17593C2.18393 0.599854 0.575928 2.20785 0.575928 4.19985V25.7999C0.575928 27.7919 2.18393 29.3999 4.17593 29.3999H37.7999C39.7919 29.3999 41.3999 27.7919 41.3999 25.7999ZM38.2559 3.93585C39.0479 4.72785 38.6159 5.54385 38.1839 5.95185L28.4399 14.8799L37.7999 24.6239C38.0879 24.9599 38.2799 25.4879 37.9439 25.8479C37.6319 26.2319 36.9119 26.2079 36.5999 25.9679L26.1119 17.0159L20.9759 21.6959L15.8639 17.0159L5.37593 25.9679C5.06393 26.2079 4.34393 26.2319 4.03193 25.8479C3.69593 25.4879 3.88793 24.9599 4.17593 24.6239L13.5359 14.8799L3.79193 5.95185C3.35993 5.54385 2.92793 4.72785 3.71993 3.93585C4.51193 3.14385 5.32793 3.52785 5.99993 4.10385L20.9759 16.1999L35.9759 4.10385C36.6479 3.52785 37.4639 3.14385 38.2559 3.93585Z" fill="#75715E"/>
</svg>
