<svg width="44" height="36" viewBox="0 0 44 36" fill="none" xmlns="http://www.w3.org/2000/svg">
<path d="M43.056 4.70405C41.88 6.45605 40.392 8.01605 38.664 9.26405C38.688 9.62405 38.688 10.0081 38.688 10.3921C38.688 22.0321 29.832 35.4481 13.656 35.4481C8.68804 35.4481 4.05604 33.9841 0.144043 31.4881C0.840043 31.5601 1.53604 31.6081 2.25604 31.6081C6.38404 31.6081 10.176 30.1921 13.176 27.8401C9.33604 27.7681 6.09604 25.2241 4.96804 21.7201C5.49604 21.8161 6.04804 21.8881 6.62404 21.8881C7.41604 21.8881 8.20804 21.7681 8.92804 21.5761C4.92004 20.7601 1.87204 17.2081 1.87204 12.9361V12.8401C3.07204 13.4881 4.41604 13.8961 5.85604 13.9441C3.50404 12.3601 1.94404 9.67205 1.94404 6.60005C1.94404 4.99205 2.37604 3.48005 3.14404 2.18405C7.48804 7.51205 13.968 11.0161 21.288 11.3761C21.144 10.7281 21.048 10.0561 21.048 9.36005C21.048 4.51205 25.008 0.57605 29.856 0.57605C32.4 0.57605 34.68 1.63205 36.288 3.36005C38.28 2.95205 40.176 2.23205 41.88 1.22405C41.208 3.26405 39.816 4.99205 37.992 6.07205C39.792 5.88005 41.472 5.40005 43.056 4.70405Z" fill="#75715E"/>
</svg>
